<?xml version="1.0" standalone="no"?><!DOCTYPE svg PUBLIC "-//W3C//DTD SVG 1.1//EN" "http://www.w3.org/Graphics/SVG/1.1/DTD/svg11.dtd"><svg t="1521516561063" class="icon" style="" viewBox="0 0 1024 1024" version="1.1" xmlns="http://www.w3.org/2000/svg" p-id="2993" xmlns:xlink="http://www.w3.org/1999/xlink" width="200" height="200"><defs><style type="text/css"></style></defs><path d="M577.536 388.096v26.112c-21.504-16.384-48.128-26.112-77.312-26.112-71.168 0-128.512 57.856-128.512 128.512 0 71.168 57.856 128.512 128.512 128.512 36.864 0 69.632-15.36 93.184-40.448 16.384 30.72 45.568 40.448 87.04 40.448 77.312 0 102.912-47.616 102.912-128.512 0-167.424-126.976-283.136-283.136-283.136s-283.136 126.976-283.136 283.136c0 156.16 126.976 283.136 283.136 283.136 75.776 0 146.944-29.184 200.192-82.944l-18.432-18.432c-48.64 48.64-113.152 75.264-182.272 75.264-141.824 0-257.536-115.712-257.536-257.536s115.2-257.536 257.536-257.536c141.824 0 257.536 103.424 257.536 257.536 0 64.512-18.432 102.912-77.312 102.912-75.776 0-77.312-47.104-77.312-102.912V387.584h-25.088z m-78.336 231.936c-56.832 0-102.912-46.08-102.912-103.424s46.08-102.912 102.912-102.912c30.72 0 58.368 13.824 77.312 35.328v67.584c0 24.064 2.048 44.032 5.632 60.416-18.944 26.112-49.152 43.008-82.944 43.008z" fill="" p-id="2994"></path></svg>